<mxfile host="app.diagrams.net" modified="2023-10-23T01:24:32.481Z" agent="Mozilla/5.0 (Windows NT 10.0; Win64; x64) AppleWebKit/537.36 (KHTML, like Gecko) Chrome/118.0.0.0 Safari/537.36" etag="aeWJdDI0_ZrXtm-GJyjF" version="22.0.6" type="github">
  <diagram name="第 1 页" id="3lVjMvXGMsNSBRNJ-Gpm">
    <mxGraphModel dx="935" dy="314" grid="0" gridSize="10" guides="1" tooltips="1" connect="1" arrows="1" fold="1" page="0" pageScale="1" pageWidth="827" pageHeight="1169" math="0" shadow="0">
      <root>
        <mxCell id="0" />
        <mxCell id="1" parent="0" />
        <mxCell id="XecLKfTDn2Nf4i1a0BZ--1" value="学生" style="shape=umlActor;verticalLabelPosition=bottom;verticalAlign=top;html=1;" vertex="1" parent="1">
          <mxGeometry x="170" y="168" width="30" height="60" as="geometry" />
        </mxCell>
        <mxCell id="XecLKfTDn2Nf4i1a0BZ--3" value="用户" style="shape=umlActor;verticalLabelPosition=bottom;verticalAlign=top;html=1;" vertex="1" parent="1">
          <mxGeometry x="40" y="220" width="30" height="60" as="geometry" />
        </mxCell>
        <mxCell id="XecLKfTDn2Nf4i1a0BZ--4" value="教师" style="shape=umlActor;verticalLabelPosition=bottom;verticalAlign=top;html=1;" vertex="1" parent="1">
          <mxGeometry x="170" y="267" width="30" height="60" as="geometry" />
        </mxCell>
        <mxCell id="XecLKfTDn2Nf4i1a0BZ--18" value="" style="endArrow=block;endSize=16;endFill=0;html=1;rounded=0;" edge="1" parent="1" source="XecLKfTDn2Nf4i1a0BZ--3" target="XecLKfTDn2Nf4i1a0BZ--1">
          <mxGeometry width="160" relative="1" as="geometry">
            <mxPoint x="68" y="404" as="sourcePoint" />
            <mxPoint x="228" y="404" as="targetPoint" />
          </mxGeometry>
        </mxCell>
        <mxCell id="XecLKfTDn2Nf4i1a0BZ--19" value="" style="endArrow=block;endSize=16;endFill=0;html=1;rounded=0;" edge="1" parent="1" source="XecLKfTDn2Nf4i1a0BZ--3" target="XecLKfTDn2Nf4i1a0BZ--4">
          <mxGeometry width="160" relative="1" as="geometry">
            <mxPoint x="118" y="277" as="sourcePoint" />
            <mxPoint x="218" y="223" as="targetPoint" />
          </mxGeometry>
        </mxCell>
        <mxCell id="XecLKfTDn2Nf4i1a0BZ--20" value="教师" style="shape=umlActor;verticalLabelPosition=bottom;verticalAlign=top;html=1;" vertex="1" parent="1">
          <mxGeometry x="-38" y="629" width="30" height="60" as="geometry" />
        </mxCell>
        <mxCell id="XecLKfTDn2Nf4i1a0BZ--21" value="&lt;font style=&quot;font-size: 9px;&quot;&gt;考试管理&lt;/font&gt;" style="ellipse;whiteSpace=wrap;html=1;" vertex="1" parent="1">
          <mxGeometry x="154" y="392.5" width="74" height="37" as="geometry" />
        </mxCell>
        <mxCell id="XecLKfTDn2Nf4i1a0BZ--22" value="" style="endArrow=open;endFill=1;endSize=12;html=1;rounded=0;exitX=1;exitY=0.3333333333333333;exitDx=0;exitDy=0;exitPerimeter=0;entryX=0;entryY=0.5;entryDx=0;entryDy=0;" edge="1" parent="1" source="XecLKfTDn2Nf4i1a0BZ--20" target="XecLKfTDn2Nf4i1a0BZ--21">
          <mxGeometry width="160" relative="1" as="geometry">
            <mxPoint x="122" y="535" as="sourcePoint" />
            <mxPoint x="282" y="535" as="targetPoint" />
          </mxGeometry>
        </mxCell>
        <mxCell id="XecLKfTDn2Nf4i1a0BZ--24" value="&lt;font style=&quot;font-size: 9px;&quot;&gt;学生管理&lt;/font&gt;" style="ellipse;whiteSpace=wrap;html=1;" vertex="1" parent="1">
          <mxGeometry x="154" y="524" width="74" height="37" as="geometry" />
        </mxCell>
        <mxCell id="XecLKfTDn2Nf4i1a0BZ--26" value="&lt;font style=&quot;font-size: 9px;&quot;&gt;成绩查询&lt;/font&gt;" style="ellipse;whiteSpace=wrap;html=1;" vertex="1" parent="1">
          <mxGeometry x="148" y="676" width="74" height="37" as="geometry" />
        </mxCell>
        <mxCell id="XecLKfTDn2Nf4i1a0BZ--27" value="&lt;font style=&quot;font-size: 9px;&quot;&gt;试题管理&lt;/font&gt;" style="ellipse;whiteSpace=wrap;html=1;" vertex="1" parent="1">
          <mxGeometry x="126" y="871" width="74" height="37" as="geometry" />
        </mxCell>
        <mxCell id="XecLKfTDn2Nf4i1a0BZ--28" value="" style="endArrow=open;endFill=1;endSize=12;html=1;rounded=0;exitX=1;exitY=0.3333333333333333;exitDx=0;exitDy=0;exitPerimeter=0;entryX=0;entryY=0.5;entryDx=0;entryDy=0;" edge="1" parent="1" source="XecLKfTDn2Nf4i1a0BZ--20" target="XecLKfTDn2Nf4i1a0BZ--24">
          <mxGeometry width="160" relative="1" as="geometry">
            <mxPoint x="80" y="528" as="sourcePoint" />
            <mxPoint x="168" y="498" as="targetPoint" />
          </mxGeometry>
        </mxCell>
        <mxCell id="XecLKfTDn2Nf4i1a0BZ--29" value="" style="endArrow=open;endFill=1;endSize=12;html=1;rounded=0;exitX=1;exitY=0.3333333333333333;exitDx=0;exitDy=0;exitPerimeter=0;entryX=0;entryY=0.5;entryDx=0;entryDy=0;" edge="1" parent="1" source="XecLKfTDn2Nf4i1a0BZ--20" target="XecLKfTDn2Nf4i1a0BZ--26">
          <mxGeometry width="160" relative="1" as="geometry">
            <mxPoint x="80" y="528" as="sourcePoint" />
            <mxPoint x="168" y="553" as="targetPoint" />
          </mxGeometry>
        </mxCell>
        <mxCell id="XecLKfTDn2Nf4i1a0BZ--30" value="" style="endArrow=open;endFill=1;endSize=12;html=1;rounded=0;exitX=1;exitY=0.3333333333333333;exitDx=0;exitDy=0;exitPerimeter=0;entryX=0;entryY=0.5;entryDx=0;entryDy=0;" edge="1" parent="1" source="XecLKfTDn2Nf4i1a0BZ--20" target="XecLKfTDn2Nf4i1a0BZ--27">
          <mxGeometry width="160" relative="1" as="geometry">
            <mxPoint x="80" y="528" as="sourcePoint" />
            <mxPoint x="168" y="608" as="targetPoint" />
          </mxGeometry>
        </mxCell>
        <mxCell id="XecLKfTDn2Nf4i1a0BZ--31" value="&lt;font style=&quot;font-size: 9px;&quot;&gt;添加考试&lt;/font&gt;" style="ellipse;whiteSpace=wrap;html=1;" vertex="1" parent="1">
          <mxGeometry x="324" y="359" width="74" height="37" as="geometry" />
        </mxCell>
        <mxCell id="XecLKfTDn2Nf4i1a0BZ--32" value="&lt;font style=&quot;font-size: 9px;&quot;&gt;考试查询&lt;/font&gt;" style="ellipse;whiteSpace=wrap;html=1;" vertex="1" parent="1">
          <mxGeometry x="324" y="427.5" width="74" height="37" as="geometry" />
        </mxCell>
        <mxCell id="XecLKfTDn2Nf4i1a0BZ--35" value="&lt;font style=&quot;font-size: 9px;&quot;&gt;删除考试&lt;/font&gt;" style="ellipse;whiteSpace=wrap;html=1;" vertex="1" parent="1">
          <mxGeometry x="529" y="425" width="74" height="37" as="geometry" />
        </mxCell>
        <mxCell id="XecLKfTDn2Nf4i1a0BZ--36" value="&lt;font style=&quot;font-size: 9px;&quot;&gt;暂停考试&lt;/font&gt;" style="ellipse;whiteSpace=wrap;html=1;" vertex="1" parent="1">
          <mxGeometry x="529" y="362" width="74" height="37" as="geometry" />
        </mxCell>
        <mxCell id="XecLKfTDn2Nf4i1a0BZ--37" value="&amp;lt;&amp;lt;include&amp;gt;&amp;gt;" style="html=1;verticalAlign=bottom;labelBackgroundColor=none;endArrow=open;endFill=0;dashed=1;rounded=0;exitX=1;exitY=0.5;exitDx=0;exitDy=0;entryX=0;entryY=0.5;entryDx=0;entryDy=0;" edge="1" parent="1" source="XecLKfTDn2Nf4i1a0BZ--32" target="XecLKfTDn2Nf4i1a0BZ--36">
          <mxGeometry x="0.0443" y="17" width="160" relative="1" as="geometry">
            <mxPoint x="228" y="421" as="sourcePoint" />
            <mxPoint x="334" y="456" as="targetPoint" />
            <mxPoint as="offset" />
          </mxGeometry>
        </mxCell>
        <mxCell id="XecLKfTDn2Nf4i1a0BZ--38" value="&amp;lt;&amp;lt;include&amp;gt;&amp;gt;" style="html=1;verticalAlign=bottom;labelBackgroundColor=none;endArrow=open;endFill=0;dashed=1;rounded=0;exitX=1;exitY=0.5;exitDx=0;exitDy=0;entryX=0;entryY=0.5;entryDx=0;entryDy=0;" edge="1" parent="1" source="XecLKfTDn2Nf4i1a0BZ--32" target="XecLKfTDn2Nf4i1a0BZ--35">
          <mxGeometry x="0.4479" y="-16" width="160" relative="1" as="geometry">
            <mxPoint x="408" y="456" as="sourcePoint" />
            <mxPoint x="461" y="407" as="targetPoint" />
            <mxPoint as="offset" />
          </mxGeometry>
        </mxCell>
        <mxCell id="XecLKfTDn2Nf4i1a0BZ--40" value="&lt;font style=&quot;font-size: 9px;&quot;&gt;添加学生&lt;/font&gt;" style="ellipse;whiteSpace=wrap;html=1;" vertex="1" parent="1">
          <mxGeometry x="322" y="488.5" width="74" height="37" as="geometry" />
        </mxCell>
        <mxCell id="XecLKfTDn2Nf4i1a0BZ--42" value="&lt;font style=&quot;font-size: 9px;&quot;&gt;删除学生&lt;/font&gt;" style="ellipse;whiteSpace=wrap;html=1;" vertex="1" parent="1">
          <mxGeometry x="326" y="559.5" width="74" height="37" as="geometry" />
        </mxCell>
        <mxCell id="XecLKfTDn2Nf4i1a0BZ--45" value="&lt;font style=&quot;font-size: 9px;&quot;&gt;根据考试查询&lt;br&gt;成绩&lt;/font&gt;" style="ellipse;whiteSpace=wrap;html=1;" vertex="1" parent="1">
          <mxGeometry x="324" y="643" width="74" height="37" as="geometry" />
        </mxCell>
        <mxCell id="XecLKfTDn2Nf4i1a0BZ--46" value="&lt;font style=&quot;font-size: 9px;&quot;&gt;根据班级查询&lt;br&gt;成绩&lt;/font&gt;" style="ellipse;whiteSpace=wrap;html=1;" vertex="1" parent="1">
          <mxGeometry x="328" y="709" width="74" height="37" as="geometry" />
        </mxCell>
        <mxCell id="XecLKfTDn2Nf4i1a0BZ--49" value="&lt;font style=&quot;font-size: 9px;&quot;&gt;导出考试成绩&lt;/font&gt;" style="ellipse;whiteSpace=wrap;html=1;" vertex="1" parent="1">
          <mxGeometry x="498" y="680" width="74" height="37" as="geometry" />
        </mxCell>
        <mxCell id="XecLKfTDn2Nf4i1a0BZ--52" value="&amp;lt;&amp;lt;extend&amp;gt;&amp;gt;" style="html=1;verticalAlign=bottom;labelBackgroundColor=none;endArrow=open;endFill=0;dashed=1;rounded=0;exitX=0;exitY=0.5;exitDx=0;exitDy=0;entryX=1;entryY=0.5;entryDx=0;entryDy=0;" edge="1" parent="1" source="XecLKfTDn2Nf4i1a0BZ--49" target="XecLKfTDn2Nf4i1a0BZ--45">
          <mxGeometry x="-0.333" y="-7" width="160" relative="1" as="geometry">
            <mxPoint x="439" y="593" as="sourcePoint" />
            <mxPoint x="599" y="593" as="targetPoint" />
            <mxPoint as="offset" />
          </mxGeometry>
        </mxCell>
        <mxCell id="XecLKfTDn2Nf4i1a0BZ--53" value="&amp;lt;&amp;lt;extend&amp;gt;&amp;gt;" style="html=1;verticalAlign=bottom;labelBackgroundColor=none;endArrow=open;endFill=0;dashed=1;rounded=0;exitX=0;exitY=0.5;exitDx=0;exitDy=0;entryX=1;entryY=0.5;entryDx=0;entryDy=0;" edge="1" parent="1" source="XecLKfTDn2Nf4i1a0BZ--49" target="XecLKfTDn2Nf4i1a0BZ--46">
          <mxGeometry x="-0.0985" y="26" width="160" relative="1" as="geometry">
            <mxPoint x="488" y="705" as="sourcePoint" />
            <mxPoint x="408" y="672" as="targetPoint" />
            <mxPoint as="offset" />
          </mxGeometry>
        </mxCell>
        <mxCell id="XecLKfTDn2Nf4i1a0BZ--54" style="edgeStyle=orthogonalEdgeStyle;rounded=0;orthogonalLoop=1;jettySize=auto;html=1;exitX=0.5;exitY=1;exitDx=0;exitDy=0;" edge="1" parent="1" source="XecLKfTDn2Nf4i1a0BZ--49" target="XecLKfTDn2Nf4i1a0BZ--49">
          <mxGeometry relative="1" as="geometry" />
        </mxCell>
        <mxCell id="XecLKfTDn2Nf4i1a0BZ--55" value="&lt;font style=&quot;font-size: 9px;&quot;&gt;查看试题列表&lt;/font&gt;" style="ellipse;whiteSpace=wrap;html=1;" vertex="1" parent="1">
          <mxGeometry x="324" y="786" width="74" height="37" as="geometry" />
        </mxCell>
        <mxCell id="XecLKfTDn2Nf4i1a0BZ--56" value="&lt;font style=&quot;font-size: 9px;&quot;&gt;添加试题&lt;/font&gt;" style="ellipse;whiteSpace=wrap;html=1;fontSize=9;" vertex="1" parent="1">
          <mxGeometry x="324" y="845.5" width="74" height="37" as="geometry" />
        </mxCell>
        <mxCell id="XecLKfTDn2Nf4i1a0BZ--59" value="" style="endArrow=block;endSize=16;endFill=0;html=1;rounded=0;exitX=0;exitY=0.5;exitDx=0;exitDy=0;entryX=0.948;entryY=0.763;entryDx=0;entryDy=0;entryPerimeter=0;" edge="1" parent="1" source="XecLKfTDn2Nf4i1a0BZ--42" target="XecLKfTDn2Nf4i1a0BZ--24">
          <mxGeometry width="160" relative="1" as="geometry">
            <mxPoint x="329" y="575" as="sourcePoint" />
            <mxPoint x="228" y="543" as="targetPoint" />
          </mxGeometry>
        </mxCell>
        <mxCell id="XecLKfTDn2Nf4i1a0BZ--60" value="" style="endArrow=block;endSize=16;endFill=0;html=1;rounded=0;exitX=0;exitY=0.5;exitDx=0;exitDy=0;entryX=0.965;entryY=0.317;entryDx=0;entryDy=0;entryPerimeter=0;" edge="1" parent="1" source="XecLKfTDn2Nf4i1a0BZ--40" target="XecLKfTDn2Nf4i1a0BZ--24">
          <mxGeometry width="160" relative="1" as="geometry">
            <mxPoint x="338" y="590" as="sourcePoint" />
            <mxPoint x="238" y="553" as="targetPoint" />
          </mxGeometry>
        </mxCell>
        <mxCell id="XecLKfTDn2Nf4i1a0BZ--61" value="" style="endArrow=block;endSize=16;endFill=0;html=1;rounded=0;exitX=0;exitY=0.5;exitDx=0;exitDy=0;" edge="1" parent="1" source="XecLKfTDn2Nf4i1a0BZ--31" target="XecLKfTDn2Nf4i1a0BZ--21">
          <mxGeometry width="160" relative="1" as="geometry">
            <mxPoint x="332" y="517" as="sourcePoint" />
            <mxPoint x="235" y="546" as="targetPoint" />
          </mxGeometry>
        </mxCell>
        <mxCell id="XecLKfTDn2Nf4i1a0BZ--62" value="" style="endArrow=block;endSize=16;endFill=0;html=1;rounded=0;exitX=0;exitY=0.5;exitDx=0;exitDy=0;entryX=1;entryY=0.713;entryDx=0;entryDy=0;entryPerimeter=0;" edge="1" parent="1" source="XecLKfTDn2Nf4i1a0BZ--32" target="XecLKfTDn2Nf4i1a0BZ--21">
          <mxGeometry width="160" relative="1" as="geometry">
            <mxPoint x="334" y="388" as="sourcePoint" />
            <mxPoint x="234" y="413" as="targetPoint" />
          </mxGeometry>
        </mxCell>
        <mxCell id="XecLKfTDn2Nf4i1a0BZ--63" value="" style="endArrow=block;endSize=16;endFill=0;html=1;rounded=0;exitX=0;exitY=0.5;exitDx=0;exitDy=0;entryX=0.939;entryY=0.207;entryDx=0;entryDy=0;entryPerimeter=0;" edge="1" parent="1" source="XecLKfTDn2Nf4i1a0BZ--45" target="XecLKfTDn2Nf4i1a0BZ--26">
          <mxGeometry width="160" relative="1" as="geometry">
            <mxPoint x="336" y="588" as="sourcePoint" />
            <mxPoint x="234" y="562" as="targetPoint" />
          </mxGeometry>
        </mxCell>
        <mxCell id="XecLKfTDn2Nf4i1a0BZ--64" value="" style="endArrow=block;endSize=16;endFill=0;html=1;rounded=0;exitX=0;exitY=0.5;exitDx=0;exitDy=0;entryX=0.956;entryY=0.722;entryDx=0;entryDy=0;entryPerimeter=0;" edge="1" parent="1" source="XecLKfTDn2Nf4i1a0BZ--46" target="XecLKfTDn2Nf4i1a0BZ--26">
          <mxGeometry width="160" relative="1" as="geometry">
            <mxPoint x="334" y="672" as="sourcePoint" />
            <mxPoint x="221" y="691" as="targetPoint" />
          </mxGeometry>
        </mxCell>
        <mxCell id="XecLKfTDn2Nf4i1a0BZ--65" value="" style="endArrow=block;endSize=16;endFill=0;html=1;rounded=0;exitX=0;exitY=0.5;exitDx=0;exitDy=0;entryX=1;entryY=0;entryDx=0;entryDy=0;" edge="1" parent="1" source="XecLKfTDn2Nf4i1a0BZ--55" target="XecLKfTDn2Nf4i1a0BZ--27">
          <mxGeometry width="160" relative="1" as="geometry">
            <mxPoint x="338" y="738" as="sourcePoint" />
            <mxPoint x="229" y="713" as="targetPoint" />
          </mxGeometry>
        </mxCell>
        <mxCell id="XecLKfTDn2Nf4i1a0BZ--66" value="" style="endArrow=block;endSize=16;endFill=0;html=1;rounded=0;exitX=0.014;exitY=0.297;exitDx=0;exitDy=0;entryX=1;entryY=0.5;entryDx=0;entryDy=0;exitPerimeter=0;" edge="1" parent="1" source="XecLKfTDn2Nf4i1a0BZ--56" target="XecLKfTDn2Nf4i1a0BZ--27">
          <mxGeometry width="160" relative="1" as="geometry">
            <mxPoint x="303" y="820" as="sourcePoint" />
            <mxPoint x="216" y="829" as="targetPoint" />
          </mxGeometry>
        </mxCell>
        <mxCell id="XecLKfTDn2Nf4i1a0BZ--67" value="编辑试题" style="ellipse;whiteSpace=wrap;html=1;fontSize=9;" vertex="1" parent="1">
          <mxGeometry x="324" y="895" width="74" height="37" as="geometry" />
        </mxCell>
        <mxCell id="XecLKfTDn2Nf4i1a0BZ--68" value="" style="endArrow=block;endSize=16;endFill=0;html=1;rounded=0;exitX=0;exitY=0.405;exitDx=0;exitDy=0;entryX=1;entryY=1;entryDx=0;entryDy=0;exitPerimeter=0;" edge="1" parent="1" source="XecLKfTDn2Nf4i1a0BZ--67" target="XecLKfTDn2Nf4i1a0BZ--27">
          <mxGeometry width="160" relative="1" as="geometry">
            <mxPoint x="339" y="864" as="sourcePoint" />
            <mxPoint x="227" y="849" as="targetPoint" />
          </mxGeometry>
        </mxCell>
        <mxCell id="XecLKfTDn2Nf4i1a0BZ--71" style="rounded=0;orthogonalLoop=1;jettySize=auto;html=1;entryX=0.944;entryY=0.223;entryDx=0;entryDy=0;strokeColor=default;endArrow=block;endSize=16;endFill=0;exitX=0;exitY=0.5;exitDx=0;exitDy=0;entryPerimeter=0;" edge="1" parent="1" source="XecLKfTDn2Nf4i1a0BZ--69" target="XecLKfTDn2Nf4i1a0BZ--56">
          <mxGeometry relative="1" as="geometry" />
        </mxCell>
        <mxCell id="XecLKfTDn2Nf4i1a0BZ--69" value="&lt;font style=&quot;font-size: 9px;&quot;&gt;从文件中导入&lt;br&gt;&lt;/font&gt;" style="ellipse;whiteSpace=wrap;html=1;fontSize=9;" vertex="1" parent="1">
          <mxGeometry x="503" y="819" width="74" height="37" as="geometry" />
        </mxCell>
        <mxCell id="XecLKfTDn2Nf4i1a0BZ--72" style="rounded=0;orthogonalLoop=1;jettySize=auto;html=1;entryX=0.944;entryY=0.772;entryDx=0;entryDy=0;endArrow=block;endSize=16;endFill=0;entryPerimeter=0;" edge="1" parent="1" source="XecLKfTDn2Nf4i1a0BZ--70" target="XecLKfTDn2Nf4i1a0BZ--56">
          <mxGeometry relative="1" as="geometry" />
        </mxCell>
        <mxCell id="XecLKfTDn2Nf4i1a0BZ--70" value="&lt;font style=&quot;font-size: 9px;&quot;&gt;手动导入&lt;br&gt;&lt;/font&gt;" style="ellipse;whiteSpace=wrap;html=1;fontSize=9;" vertex="1" parent="1">
          <mxGeometry x="503" y="872" width="74" height="37" as="geometry" />
        </mxCell>
        <mxCell id="XecLKfTDn2Nf4i1a0BZ--73" value="&lt;font style=&quot;font-size: 9px;&quot;&gt;编辑考试&lt;/font&gt;" style="ellipse;whiteSpace=wrap;html=1;" vertex="1" parent="1">
          <mxGeometry x="529" y="487" width="74" height="37" as="geometry" />
        </mxCell>
        <mxCell id="XecLKfTDn2Nf4i1a0BZ--75" value="&amp;lt;&amp;lt;include&amp;gt;&amp;gt;" style="html=1;verticalAlign=bottom;labelBackgroundColor=none;endArrow=open;endFill=0;dashed=1;rounded=0;exitX=1;exitY=0.5;exitDx=0;exitDy=0;entryX=0;entryY=0.5;entryDx=0;entryDy=0;" edge="1" parent="1" source="XecLKfTDn2Nf4i1a0BZ--32" target="XecLKfTDn2Nf4i1a0BZ--73">
          <mxGeometry x="0.2492" y="-26" width="160" relative="1" as="geometry">
            <mxPoint x="408" y="456" as="sourcePoint" />
            <mxPoint x="491" y="446" as="targetPoint" />
            <mxPoint as="offset" />
          </mxGeometry>
        </mxCell>
        <mxCell id="XecLKfTDn2Nf4i1a0BZ--76" value="删除试题" style="ellipse;whiteSpace=wrap;html=1;fontSize=9;" vertex="1" parent="1">
          <mxGeometry x="324" y="950" width="74" height="37" as="geometry" />
        </mxCell>
        <mxCell id="XecLKfTDn2Nf4i1a0BZ--77" style="edgeStyle=none;shape=connector;rounded=0;orthogonalLoop=1;jettySize=auto;html=1;entryX=0.635;entryY=0.986;entryDx=0;entryDy=0;entryPerimeter=0;labelBackgroundColor=default;strokeColor=default;align=center;verticalAlign=middle;fontFamily=Helvetica;fontSize=11;fontColor=default;endArrow=block;endFill=0;endSize=16;" edge="1" parent="1" source="XecLKfTDn2Nf4i1a0BZ--76" target="XecLKfTDn2Nf4i1a0BZ--27">
          <mxGeometry relative="1" as="geometry" />
        </mxCell>
        <mxCell id="XecLKfTDn2Nf4i1a0BZ--84" style="edgeStyle=none;shape=connector;rounded=0;orthogonalLoop=1;jettySize=auto;html=1;entryX=0;entryY=0.5;entryDx=0;entryDy=0;labelBackgroundColor=default;strokeColor=default;align=center;verticalAlign=middle;fontFamily=Helvetica;fontSize=11;fontColor=default;endArrow=open;endFill=1;endSize=12;" edge="1" parent="1" source="XecLKfTDn2Nf4i1a0BZ--80" target="XecLKfTDn2Nf4i1a0BZ--81">
          <mxGeometry relative="1" as="geometry" />
        </mxCell>
        <mxCell id="XecLKfTDn2Nf4i1a0BZ--85" style="edgeStyle=none;shape=connector;rounded=0;orthogonalLoop=1;jettySize=auto;html=1;entryX=0;entryY=0.5;entryDx=0;entryDy=0;labelBackgroundColor=default;strokeColor=default;align=center;verticalAlign=middle;fontFamily=Helvetica;fontSize=11;fontColor=default;endArrow=open;endFill=1;endSize=12;" edge="1" parent="1" source="XecLKfTDn2Nf4i1a0BZ--80" target="XecLKfTDn2Nf4i1a0BZ--82">
          <mxGeometry relative="1" as="geometry" />
        </mxCell>
        <mxCell id="XecLKfTDn2Nf4i1a0BZ--86" style="edgeStyle=none;shape=connector;rounded=0;orthogonalLoop=1;jettySize=auto;html=1;entryX=0;entryY=0.5;entryDx=0;entryDy=0;labelBackgroundColor=default;strokeColor=default;align=center;verticalAlign=middle;fontFamily=Helvetica;fontSize=11;fontColor=default;endArrow=open;endFill=1;endSize=12;" edge="1" parent="1" source="XecLKfTDn2Nf4i1a0BZ--80" target="XecLKfTDn2Nf4i1a0BZ--83">
          <mxGeometry relative="1" as="geometry" />
        </mxCell>
        <mxCell id="XecLKfTDn2Nf4i1a0BZ--80" value="学生" style="shape=umlActor;verticalLabelPosition=bottom;verticalAlign=top;html=1;" vertex="1" parent="1">
          <mxGeometry x="-62" y="1335" width="30" height="60" as="geometry" />
        </mxCell>
        <mxCell id="XecLKfTDn2Nf4i1a0BZ--81" value="查询成绩" style="ellipse;whiteSpace=wrap;html=1;fontSize=9;" vertex="1" parent="1">
          <mxGeometry x="68" y="1240" width="74" height="37" as="geometry" />
        </mxCell>
        <mxCell id="XecLKfTDn2Nf4i1a0BZ--82" value="进行考试" style="ellipse;whiteSpace=wrap;html=1;fontSize=9;" vertex="1" parent="1">
          <mxGeometry x="68" y="1298" width="74" height="37" as="geometry" />
        </mxCell>
        <mxCell id="XecLKfTDn2Nf4i1a0BZ--83" value="我的错题" style="ellipse;whiteSpace=wrap;html=1;fontSize=9;" vertex="1" parent="1">
          <mxGeometry x="74" y="1354" width="74" height="37" as="geometry" />
        </mxCell>
        <mxCell id="XecLKfTDn2Nf4i1a0BZ--89" value="登录" style="ellipse;whiteSpace=wrap;html=1;fontSize=9;" vertex="1" parent="1">
          <mxGeometry x="74" y="1414" width="74" height="37" as="geometry" />
        </mxCell>
        <mxCell id="XecLKfTDn2Nf4i1a0BZ--90" style="edgeStyle=none;shape=connector;rounded=0;orthogonalLoop=1;jettySize=auto;html=1;entryX=0;entryY=0.5;entryDx=0;entryDy=0;labelBackgroundColor=default;strokeColor=default;align=center;verticalAlign=middle;fontFamily=Helvetica;fontSize=11;fontColor=default;endArrow=open;endFill=1;endSize=12;" edge="1" parent="1" source="XecLKfTDn2Nf4i1a0BZ--80" target="XecLKfTDn2Nf4i1a0BZ--89">
          <mxGeometry relative="1" as="geometry">
            <mxPoint x="2" y="1345" as="sourcePoint" />
            <mxPoint x="84" y="1383" as="targetPoint" />
          </mxGeometry>
        </mxCell>
      </root>
    </mxGraphModel>
  </diagram>
</mxfile>
